# xmcd
#
# Track frame offsets:
#	150
#	17408
#	58891
#	81170
#	105924
#
# Disc length: 1999 seconds
#
# Revision: 5
# Processed by: cddbd v1.5.2PL0 Copyright (c) Steve Scherf et al.
# Submitted via: EasyCDDAExtractor 12.0.1.1
#
DISCID=3007cd05
DTITLE=Mariah Carey - My All [Maxi Single]
DYEAR=1998
DGENRE=Blues
TTITLE0=My All (Album Version)
TTITLE1=My All (Classic Club Mix)
TTITLE2=Breakdown ('Mo Thugs Remix)
TTITLE3=The Roof (Mobb Deep Mix)
TTITLE4=Fly Away (Butterfly Reprise) (Fly Away Club Mix)
EXTD=
EXTT0=
EXTT1=
EXTT2=with Bone Thugs 'n' Harmony\n
EXTT3=with Mobb Deep\n
EXTT4=
PLAYORDER=
